<svg xmlns="http://www.w3.org/2000/svg" viewBox="0 0 32 32">
  <defs>
    <linearGradient id="favicon-aurora" x1="2" y1="30" x2="30" y2="2" gradientUnits="userSpaceOnUse">
      <stop offset="0%" stop-color="#065f46" />
      <stop offset="18%" stop-color="#10b981" />
      <stop offset="36%" stop-color="#2dd4bf" />
      <stop offset="52%" stop-color="#38bdf8" />
      <stop offset="68%" stop-color="#818cf8" />
      <stop offset="82%" stop-color="#c026d3" />
      <stop offset="100%" stop-color="#f9a8d4" />
    </linearGradient>
  </defs>
  <circle cx="16" cy="16" r="15" fill="#0f172a" />
  <g fill="url(#favicon-aurora)">
    <path
      d="M 10.506 4.218 A 13 13 0 0 1 21.494 4.218 L 18.747 10.109 A 6.5 6.5 0 0 0 13.253 10.109 Z"
      transform="rotate(0 16 16)"
    />
    <path
      d="M 10.506 4.218 A 13 13 0 0 1 21.494 4.218 L 18.747 10.109 A 6.5 6.5 0 0 0 13.253 10.109 Z"
      transform="rotate(60 16 16)"
    />
    <path
      d="M 10.506 4.218 A 13 13 0 0 1 21.494 4.218 L 18.747 10.109 A 6.5 6.5 0 0 0 13.253 10.109 Z"
      transform="rotate(120 16 16)"
    />
    <path
      d="M 10.506 4.218 A 13 13 0 0 1 21.494 4.218 L 18.747 10.109 A 6.5 6.5 0 0 0 13.253 10.109 Z"
      transform="rotate(180 16 16)"
    />
    <path
      d="M 10.506 4.218 A 13 13 0 0 1 21.494 4.218 L 18.747 10.109 A 6.5 6.5 0 0 0 13.253 10.109 Z"
      transform="rotate(240 16 16)"
    />
    <path
      d="M 10.506 4.218 A 13 13 0 0 1 21.494 4.218 L 18.747 10.109 A 6.5 6.5 0 0 0 13.253 10.109 Z"
      transform="rotate(300 16 16)"
    />
  </g>
  <circle cx="16" cy="16" r="6.5" fill="#0f172a" />
  <path d="M13.5 11.5v9l7.5-4.5-7.5-4.5z" fill="#f8fafc" />
</svg>
